<svg xmlns="http://www.w3.org/2000/svg" xmlns:svg="http://www.w3.org/2000/svg" xmlns:xlink="http://www.w3.org/1999/xlink" id="svg6334" x="0" y="0" version="1.1" viewBox="-281 372.9 48 48.1" xml:space="preserve" style="enable-background:new -281 372.9 48 48.1"><style type="text/css">.st0{fill:url(#SVGID_1_)}.st1{fill:#fff}</style><g><linearGradient id="SVGID_1_" x1="-256.937" x2="-256.937" y1="372.875" y2="421" gradientUnits="userSpaceOnUse"><stop offset="0" style="stop-color:#be29c0"/><stop offset="1" style="stop-color:#9d00f5"/></linearGradient><circle cx="-256.9" cy="396.9" r="24.1" class="st0"/><path d="M-258.6,381.9c1.9-0.3,3.8-0.3,5.7,0.1c1.5,0.3,3,0.9,4.2,1.8c0.8,0.6,1.5,1.4,2,2.3c0.6,1,0.9,2.3,0.9,3.5 c0,0.9-0.1,1.8-0.4,2.6c-0.5,1.4-1.4,2.7-2.5,3.7c-1.4,1.3-3,2.4-4.7,3.1c-1.2,0.5-2.4,0.9-3.7,1.2c0.2,1.2,0.6,2.4,1.2,3.5 c0.4,0.9,1,1.8,1.7,2.5c0.3,0.2,0.5,0.4,0.9,0.6c0.4,0.2,0.8,0.1,1.2,0.1c0.6,0,1.3-0.1,1.9-0.3c1.4-0.5,2.7-1.3,3.7-2.4 c0.3-0.4,0.6-0.8,1.1-0.9c0.4-0.2,0.9-0.1,1.2,0.3c0.2,0.3,0.2,0.7,0.1,1.1c-0.1,0.4-0.3,0.8-0.5,1.1c-0.2,0.3-0.5,0.6-0.8,0.9 c-0.9,0.8-1.9,1.6-2.9,2.2c-1.1,0.6-2.3,1.1-3.6,1.2c-0.9,0.1-1.8,0.1-2.6-0.3c-1.1-0.5-2-1.3-2.7-2.2c-0.8-1.1-1.5-2.2-2-3.5 c-0.6-1.3-1.1-2.6-1.5-4c-0.4,0.9-0.7,1.8-1,2.7c-0.5,1.3-0.9,2.5-1.4,3.7c-0.5,1.2-1.1,2.4-2.1,3.2c-0.4,0.4-1,0.7-1.6,0.6 c-0.5,0-1.1-0.2-1.4-0.6c-0.2-0.3-0.4-0.7-0.4-1.1c-0.1-0.8,0.1-1.5,0.5-2.2c1.1-1.9,2.1-3.9,3.2-5.8c1.5-2.7,2.9-5.4,4.5-7.9 c0.7-1.1,1.4-2.2,2.4-3c0.3-0.3,0.7-0.5,1.1-0.6c0.4,0,0.8,0.2,0.9,0.5c0.3,0.6,0.1,1.3-0.1,1.9c-0.6,1.8-1.5,3.6-2.3,5.3 c1,0.1,2.1-0.1,3-0.4c1-0.4,2-1,2.8-1.7l-0.1,0c0,0,0.1,0,0.1,0c1.4-1.1,2.4-2.7,2.8-4.5c0.3-1.2,0.1-2.5-0.5-3.5 c-0.5-0.8-1.3-1.4-2.2-1.7c-1.2-0.5-2.5-0.6-3.8-0.5c-0.9,0-1.9,0.1-2.7,0.4c-1.2,0.4-2.4,1-3.3,1.9c-0.5,0.5-0.9,1.1-1.3,1.7 c-0.6,1-1.1,2.1-2,2.9c-0.4,0.4-1,0.6-1.5,0.6c-0.6,0-1.2-0.1-1.6-0.6c-0.4-0.5-0.4-1.2-0.3-1.8c0.2-1.2,0.9-2.2,1.6-3 c0.8-1,1.8-1.8,2.9-2.5C-263.1,383.1-260.9,382.3-258.6,381.9z" class="st1"/></g></svg>